HIERARCHY
ROOT Hips
{
  OFFSET 49.6674 100.939 46.1818
  CHANNELS 6 Xposition Yposition Zposition Zrotation Xrotation Yrotation
  JOINT spine
  {
    OFFSET 0 8.81705 0.507024
    CHANNELS 3 Zrotation Xrotation Yrotation
    JOINT spine1
    {
      OFFSET 0 10.7766 0
      CHANNELS 3 Zrotation Xrotation Yrotation
      JOINT spine2
      {
        OFFSET 0 10.3259 0
        CHANNELS 3 Zrotation Xrotation Yrotation
        JOINT Neck
        {
          OFFSET 0 26.511 1.26395
          CHANNELS 3 Zrotation Xrotation Yrotation
          JOINT Head
          {
            OFFSET 0 8.00966 0
            CHANNELS 3 Zrotation Xrotation Yrotation
            End Site
            {
              OFFSET 0 19.3879 -6.39386
            }
          }
        }
        JOINT RightShoulder
        {
          OFFSET -4.34795 11.1512 -0.605422
          CHANNELS 3 Zrotation Xrotation Yrotation
          JOINT RightArm
          {
            OFFSET 0 14.6258 0
            CHANNELS 3 Zrotation Xrotation Yrotation
            JOINT RightArmRoll
            {
              OFFSET 0 7.3834 0
              CHANNELS 3 Zrotation Xrotation Yrotation
              JOINT RightForeArm
              {
                OFFSET 0 21.5052 0
                CHANNELS 3 Zrotation Xrotation Yrotation
                JOINT RightForeArmRoll
                {
                  OFFSET 0 8.28532 0
                  CHANNELS 3 Zrotation Xrotation Yrotation
                  JOINT RightHand
                  {
                    OFFSET 0 16.6268 0
                    CHANNELS 3 Zrotation Xrotation Yrotation
                    End Site
                    {
                      OFFSET 0 0 0
                    }
                  }
                }
              }
            }
          }
        }
        JOINT LeftShoulder
        {
          OFFSET 4.34795 11.1512 -0.605422
          CHANNELS 3 Zrotation Xrotation Yrotation
          JOINT LeftArm
          {
            OFFSET 0 14.6258 0
            CHANNELS 3 Zrotation Xrotation Yrotation
            JOINT LeftArmRoll
            {
              OFFSET 0 7.3834 0
              CHANNELS 3 Zrotation Xrotation Yrotation
              JOINT LeftForeArm
              {
                OFFSET 0 21.5052 0
                CHANNELS 3 Zrotation Xrotation Yrotation
                JOINT LeftForeArmRoll
                {
                  OFFSET 0 8.28532 0
                  CHANNELS 3 Zrotation Xrotation Yrotation
                  JOINT LeftHand
                  {
                    OFFSET 0 16.6268 0
                    CHANNELS 3 Zrotation Xrotation Yrotation
                    End Site
                    {
                      OFFSET 0 0 0
                    }
                  }
                }
              }
            }
          }
        }
      }
    }
  }
  JOINT RightUpLeg
  {
    OFFSET -7.8151 -1.43309 -1.20217
    CHANNELS 3 Zrotation Xrotation Yrotation
    JOINT RightUpLegRoll
    {
      OFFSET 0 19.4959 0
      CHANNELS 3 Zrotation Xrotation Yrotation
      JOINT RightLeg
      {
        OFFSET 0 -24.1427 0
        CHANNELS 3 Zrotation Xrotation Yrotation
        JOINT RightLegRoll
        {
          OFFSET 0 24.2217 0
          CHANNELS 3 Zrotation Xrotation Yrotation
          JOINT RightFoot
          {
            OFFSET 0 20.1605 0
            CHANNELS 3 Zrotation Xrotation Yrotation
            JOINT RightToeBase
            {
              OFFSET 0 16.8532 0
              CHANNELS 3 Zrotation Xrotation Yrotation
              End Site
              {
                OFFSET 0.00714343 8.16187 -0.94078
              }
            }
          }
        }
      }
    }
  }
  JOINT LeftUpLeg
  {
    OFFSET 7.8151 -1.43309 -1.20217
    CHANNELS 3 Zrotation Xrotation Yrotation
    JOINT LeftUpLegRoll
    {
      OFFSET 0 19.496 0
      CHANNELS 3 Zrotation Xrotation Yrotation
      JOINT LeftLeg
      {
        OFFSET 0 24.1426 0
        CHANNELS 3 Zrotation Xrotation Yrotation
        JOINT LeftLegRoll
        {
          OFFSET 0 24.4456 0
          CHANNELS 3 Zrotation Xrotation Yrotation
          JOINT LeftFoot
          {
            OFFSET 0 19.9366 0
            CHANNELS 3 Zrotation Xrotation Yrotation
            JOINT LeftToeBase
            {
              OFFSET 0 16.8532 0
              CHANNELS 3 Zrotation Xrotation Yrotation
              End Site
              {
                OFFSET -0.0320138 8.16186 -0.940781
              }
            }
          }
        }
      }
    }
  }
}
MOTION
Frames: 12
Frame Time: 0.00208333
51.1377 51.918 8.18247 -2.62989 -22.0173 2.93948 0.927859 2.78589 0.436257 1.8346 9.56153 0.710883 1.83175 11.2061 0.681263 12.5763 22.5655 -2.99983 -12.6287 -15.0253 -1.9486 73.1529 -7.16439 -4.97287 100.327 29.0564 -12.235 -7.12451e-006 -4.8509e-007 2.60254e-008 20.0455 48.9541 -10.1231 -2.27797e-006 2.80246e-006 -3.00551 8.02883 -4.95141 0.697646 -58.3475 0.120174 -0.0749591 -113.857 25.8809 17.5591 3.33246e-007 1.90833e-014 -7.60592e-007 -16.0544 49.5952 9.05985 4.27323e-006 9.48931e-006 3.00974 -8.02895 -4.95146 -0.697666 152.797 72.7312 30.869 180 1.52537e-005 178.524 -21.789 83.8608 22.0788 -2.67945e-006 -4.48744e-006 1.62538 -17.6377 66.5071 18.3727 8.13621 25.2343 -3.47929 -165.253 76.616 -9.5284 4.54188e-006 -4.6773e-006 -1.39342 128.381 -82.5539 124.47 2.66882e-006 -8.29956e-006 -1.36832 14.5568 64.4959 -17.1605 -8.13467 25.2328 3.48696 
51.1514 51.9065 8.20116 -2.62548 -22.0279 2.95348 0.928358 2.78962 0.440216 1.83629 9.57037 0.718738 1.83335 11.2149 0.689106 12.6509 22.5117 -3.03045 -12.6938 -14.9819 -1.97144 73.1727 -7.20361 -4.99136 100.305 29.063 -12.2449 -7.12451e-006 -4.8509e-007 2.60254e-008 20.0465 48.9764 -10.1279 -2.27797e-006 2.80246e-006 -3.00551 8.02883 -4.95141 0.697646 -58.3005 0.142552 -0.0948325 -113.914 25.8975 17.5712 3.33246e-007 6.36111e-015 -7.60592e-007 -16.0443 49.5842 9.05297 4.27323e-006 9.48931e-006 3.00974 -8.02895 -4.95146 -0.697666 152.761 72.7105 30.9019 180 1.52537e-005 178.523 -21.7759 83.8575 22.0648 -2.67945e-006 -4.48744e-006 1.62594 -17.6401 66.5094 18.3744 8.13621 25.2343 -3.47929 -165.322 76.6057 -9.46369 4.54188e-006 -4.6773e-006 -1.39305 128.398 -82.5527 124.488 2.66882e-006 -8.29956e-006 -1.36731 14.5538 64.4938 -17.1595 -8.13467 25.2328 3.48696 
51.1518 51.9131 8.19572 -2.62113 -22.0388 2.96768 0.928808 2.79339 0.444219 1.83793 9.57932 0.726696 1.83491 11.2239 0.697052 12.7276 22.4572 -3.06168 -12.7607 -14.9379 -1.99462 73.1934 -7.2434 -5.01014 100.28 29.0698 -12.2557 -7.12451e-006 -4.8509e-007 2.60254e-008 20.0478 48.9987 -10.1326 -2.27797e-006 2.80246e-006 -3.00551 8.02883 -4.95141 0.697646 -58.252 0.165059 -0.114965 -113.972 25.9144 17.5834 3.33246e-007 0 -7.60592e-007 -16.0338 49.5727 9.04579 4.27323e-006 9.48931e-006 3.00974 -8.02895 -4.95146 -0.697666 152.725 72.6895 30.9349 180 1.52537e-005 178.522 -21.7621 83.8541 22.05 -2.67945e-006 -4.48744e-006 1.62654 -17.6424 66.5118 18.376 8.13621 25.2343 -3.47929 -165.393 76.595 -9.39859 4.54188e-006 -4.6773e-006 -1.39263 128.418 -82.5513 124.507 2.66882e-006 -8.29956e-006 -1.36622 14.5501 64.4915 -17.1583 -8.13467 25.2328 3.48696 
51.1572 51.9189 8.19644 -2.61682 -22.0499 2.98201 0.929222 2.79718 0.448253 1.83954 9.58836 0.734726 1.83643 11.2329 0.705072 12.8058 22.4022 -3.09332 -12.8288 -14.8936 -2.01804 73.2147 -7.28359 -5.02914 100.255 29.0766 -12.267 -7.12451e-006 -4.8509e-007 2.60254e-008 20.0493 49.021 -10.1374 -2.27797e-006 2.80246e-006 -3.00551 8.02883 -4.95141 0.697646 -58.2025 0.187655 -0.13528 -114.032 25.9314 17.5957 3.33246e-007 3.18055e-015 -7.60592e-007 -16.0231 49.5608 9.0384 4.27323e-006 9.48931e-006 3.00974 -8.02895 -4.95146 -0.697666 152.689 72.6681 30.9679 180 1.52537e-005 178.522 -21.7476 83.8507 22.0345 -2.67945e-006 -4.48744e-006 1.62717 -17.6448 66.5141 18.3777 8.13621 25.2343 -3.47929 -165.463 76.5841 -9.33325 4.54188e-006 -4.6773e-006 -1.39218 128.437 -82.5498 124.527 2.66882e-006 -8.29956e-006 -1.36506 14.5461 64.4889 -17.157 -8.13467 25.2328 3.48696 
51.1614 51.9181 8.19979 -2.61253 -22.0611 2.99642 0.929615 2.80098 0.452304 1.84112 9.59744 0.742798 1.83792 11.242 0.713134 12.8848 22.347 -3.12519 -12.8976 -14.8492 -2.0416 73.2363 -7.32401 -5.04826 100.23 29.0836 -12.2786 -7.12451e-006 -4.8509e-007 2.60254e-008 20.051 49.0434 -10.1421 -2.27797e-006 2.80246e-006 -3.00551 8.02883 -4.95141 0.697646 -58.1524 0.210303 -0.155698 -114.093 25.9485 17.608 3.33246e-007 6.36111e-015 -7.60592e-007 -16.0123 49.5486 9.03089 4.27323e-006 9.48931e-006 3.00974 -8.02895 -4.95146 -0.697666 152.653 72.6467 31.001 180 1.52537e-005 178.521 -21.7329 83.8472 22.0187 -2.67945e-006 -4.48744e-006 1.62781 -17.6471 66.5165 18.3794 8.13621 25.2343 -3.47929 -165.533 76.5731 -9.26783 4.54188e-006 -4.6773e-006 -1.39172 128.457 -82.5482 124.547 2.66882e-006 -8.29956e-006 -1.36387 14.5419 64.4862 -17.1556 -8.13467 25.2328 3.48696 
51.164 51.9243 8.19578 -2.60824 -22.0722 3.01085 0.930003 2.80479 0.456359 1.8427 9.60654 0.750881 1.83942 11.2511 0.721206 12.964 22.2917 -3.1571 -12.9666 -14.8046 -2.06518 73.258 -7.36448 -5.06742 100.204 29.0905 -12.2903 -7.12451e-006 -4.8509e-007 2.60254e-008 20.0527 49.0659 -10.1469 -2.27797e-006 2.80246e-006 -3.00551 8.02883 -4.95141 0.697646 -58.1021 0.232964 -0.176143 -114.153 25.9656 17.6204 3.33246e-007 9.54166e-015 -7.60592e-007 -16.0013 49.5365 9.02336 4.27323e-006 9.48931e-006 3.00974 -8.02895 -4.95146 -0.697666 152.617 72.6251 31.034 180 1.52537e-005 178.52 -21.718 83.8437 22.0029 -2.67945e-006 -4.48744e-006 1.62845 -17.6495 66.5189 18.3811 8.13621 25.2343 -3.47929 -165.604 76.562 -9.20246 4.54188e-006 -4.6773e-006 -1.39125 128.478 -82.5467 124.568 2.66882e-006 -8.29956e-006 -1.36268 14.5375 64.4835 -17.1543 -8.13467 25.2328 3.48696 
51.1688 51.9234 8.20053 -2.60393 -22.0834 3.02525 0.9304 2.80859 0.460405 1.84429 9.61561 0.758943 1.84091 11.2602 0.729258 13.0426 22.2365 -3.18887 -13.0351 -14.7602 -2.08868 73.2795 -7.40484 -5.08652 100.179 29.0974 -12.3018 -7.12451e-006 -4.8509e-007 2.60254e-008 20.0543 49.0883 -10.1517 -2.27797e-006 2.80246e-006 -3.00551 8.02883 -4.95141 0.697646 -58.0521 0.255599 -0.196536 -114.214 25.9827 17.6327 3.33246e-007 1.27222e-014 -7.60592e-007 -15.9905 49.5244 9.01589 4.27323e-006 9.48931e-006 3.00974 -8.02895 -4.95146 -0.697666 152.581 72.6037 31.067 180 1.52537e-005 178.519 -21.7034 83.8402 21.9872 -2.67945e-006 -4.48744e-006 1.62908 -17.6518 66.5212 18.3828 8.13621 25.2343 -3.47929 -165.674 76.5509 -9.1373 4.54188e-006 -4.6773e-006 -1.3908 128.498 -82.5451 124.588 2.66882e-006 -8.29956e-006 -1.3615 14.5333 64.4809 -17.153 -8.13467 25.2328 3.48696 
51.1753 51.9234 8.2004 -2.59959 -22.0944 3.03955 0.930822 2.81237 0.46443 1.8459 9.62462 0.766955 1.84243 11.2692 0.737259 13.1201 22.1817 -3.2203 -13.1027 -14.716 -2.112 73.3005 -7.4449 -5.10548 100.154 29.1043 -12.3129 -7.12451e-006 -4.8509e-007 2.60254e-008 20.0558 49.1106 -10.1565 -2.27797e-006 2.80246e-006 -3.00551 8.02883 -4.95141 0.697646 -58.0028 0.27817 -0.216799 -114.273 25.9996 17.645 3.33246e-007 1.27222e-014 -7.60592e-007 -15.9799 49.5126 9.00858 4.27323e-006 9.48931e-006 3.00974 -8.02895 -4.95146 -0.697666 152.545 72.5824 31.0997 180 1.52537e-005 178.519 -21.6892 83.8368 21.972 -2.67945e-006 -4.48744e-006 1.6297 -17.6542 66.5236 18.3845 8.13621 25.2343 -3.47929 -165.744 76.54 -9.07248 4.54188e-006 -4.6773e-006 -1.39036 128.517 -82.5437 124.608 2.66882e-006 -8.29956e-006 -1.36036 14.5294 64.4784 -17.1517 -8.13467 25.2328 3.48696 
51.1785 51.9256 8.20162 -2.59518 -22.1052 3.05371 0.931283 2.81612 0.46842 1.84754 9.63354 0.774885 1.84398 11.2781 0.745178 13.1958 22.1274 -3.25121 -13.1688 -14.6722 -2.13502 73.3207 -7.4845 -5.12421 100.13 29.1109 -12.3234 -7.12451e-006 -4.8509e-007 2.60254e-008 20.0571 49.1329 -10.1613 -2.27797e-006 2.80246e-006 -3.00551 8.02883 -4.95141 0.697646 -57.9547 0.300638 -0.236854 -114.331 26.0164 17.6572 3.33246e-007 2.22639e-014 -7.60592e-007 -15.9696 49.5013 9.00151 4.27323e-006 9.48931e-006 3.00974 -8.02895 -4.95146 -0.697666 152.509 72.5615 31.1322 180 1.52537e-005 178.518 -21.6757 83.8334 21.9575 -2.67945e-006 -4.48744e-006 1.63029 -17.6565 66.5259 18.3862 8.13621 25.2343 -3.47929 -165.813 76.5294 -9.00815 4.54188e-006 -4.6773e-006 -1.38995 128.536 -82.5423 124.626 2.66882e-006 -8.29956e-006 -1.35929 14.526 64.4761 -17.1505 -8.13467 25.2328 3.48696 
51.1786 51.9289 8.19525 -2.5907 -22.1158 3.06765 0.931798 2.81984 0.472362 1.84922 9.64233 0.782702 1.84558 11.2869 0.752984 13.2689 22.0738 -3.28141 -13.2329 -14.629 -2.15765 73.34 -7.52347 -5.14263 100.108 29.1174 -12.3331 -7.12451e-006 -4.8509e-007 2.60254e-008 20.058 49.1551 -10.166 -2.27797e-006 2.80246e-006 -3.00551 8.02883 -4.95141 0.697646 -57.9081 0.322963 -0.256625 -114.388 26.0329 17.6693 3.33246e-007 3.18055e-015 -7.60592e-007 -15.9597 49.4905 8.99477 4.27323e-006 9.48931e-006 3.00974 -8.02895 -4.95146 -0.697666 152.474 72.5409 31.1644 180 1.52537e-005 178.517 -21.6631 83.8302 21.9441 -2.67945e-006 -4.48744e-006 1.63084 -17.6589 66.5283 18.3879 8.13621 25.2343 -3.47929 -165.882 76.519 -8.94443 4.54188e-006 -4.6773e-006 -1.38959 128.553 -82.5411 124.644 2.66882e-006 -8.29956e-006 -1.35831 14.5232 64.4741 -17.1495 -8.13467 25.2328 3.48696 
51.183 51.9302 8.19689 -2.58611 -22.126 3.08133 0.932382 2.82351 0.476243 1.85097 9.65096 0.790377 1.84725 11.2955 0.760645 13.3389 22.0212 -3.31073 -13.2943 -14.5865 -2.17977 73.3579 -7.56163 -5.16065 100.087 29.1237 -12.3416 -7.12451e-006 -4.8509e-007 2.60254e-008 20.0586 49.1771 -10.1708 -2.27797e-006 2.80246e-006 -3.00551 8.02883 -4.95141 0.697646 -57.8635 0.345108 -0.276032 -114.441 26.0491 17.6811 3.33246e-007 1.90833e-014 -7.60592e-007 -15.9504 49.4805 8.98846 4.27323e-006 9.48931e-006 3.00974 -8.02895 -4.95146 -0.697666 152.439 72.5209 31.1963 180 1.52537e-005 178.517 -21.6518 83.827 21.932 -2.67945e-006 -4.48744e-006 1.63134 -17.6613 66.5307 18.3896 8.13621 25.2343 -3.47929 -165.95 76.5091 -8.88147 4.54188e-006 -4.6773e-006 -1.38929 128.569 -82.54 124.66 2.66882e-006 -8.29956e-006 -1.35744 14.5212 64.4726 -17.1487 -8.13467 25.2328 3.48696 
51.1809 51.942 8.19364 -2.58141 -22.1358 3.09469 0.933051 2.82712 0.48005 1.85279 9.65939 0.797878 1.84898 11.3039 0.768131 13.4051 21.9697 -3.33898 -13.3526 -14.5449 -2.20129 73.3743 -7.59881 -5.17817 100.069 29.1297 -12.3488 -7.12451e-006 -4.8509e-007 2.60254e-008 20.0586 49.199 -10.1756 -2.27797e-006 2.80246e-006 -3.00551 8.02883 -4.95141 0.697646 -57.8214 0.367034 -0.294998 -114.493 26.0649 17.6928 3.33246e-007 1.59028e-014 -7.60592e-007 -15.9417 49.4713 8.98266 4.27323e-006 9.48931e-006 3.00974 -8.02895 -4.95146 -0.697666 152.404 72.5015 31.2278 180 1.52537e-005 178.516 -21.6419 83.824 21.9213 -2.67945e-006 -4.48744e-006 1.63178 -17.6637 66.533 18.3913 8.13621 25.2343 -3.47929 -166.017 76.4997 -8.81941 4.54188e-006 -4.6773e-006 -1.38905 128.583 -82.5392 124.675 2.66882e-006 -8.29956e-006 -1.35672 14.5202 64.4715 -17.1481 -8.13467 25.2328 3.48696 
